<?xml version="1.0" standalone="no"?>
<!DOCTYPE svg PUBLIC "-//W3C//DTD SVG 20010904//EN"
 "http://www.w3.org/TR/2001/REC-SVG-20010904/DTD/svg10.dtd">
<svg version="1.0" xmlns="http://www.w3.org/2000/svg"
 width="441.000000pt" height="441.000000pt" viewBox="0 0 441.000000 441.000000"
 preserveAspectRatio="xMidYMid meet">
<metadata>
Created by potrace 1.14, written by Peter Selinger 2001-2017
</metadata>
<g transform="translate(0.000000,441.000000) scale(0.100000,-0.100000)"
fill="#000000" stroke="none">
<path d="M2039 4406 c-2 -2 -35 -7 -74 -10 -38 -3 -104 -13 -145 -21 -41 -8
-86 -16 -100 -19 -14 -2 -50 -11 -80 -19 -288 -79 -540 -203 -770 -379 -309
-235 -525 -512 -693 -888 -38 -84 -108 -298 -122 -371 -3 -13 -9 -47 -15 -75
-27 -127 -38 -277 -35 -459 2 -104 6 -206 10 -225 3 -19 12 -73 20 -120 76
-450 307 -883 642 -1202 90 -87 93 -89 143 -128 25 -19 47 -37 50 -41 11 -13
189 -128 265 -171 231 -131 559 -237 820 -265 144 -15 485 -8 585 12 14 3 41
8 60 11 328 52 765 255 1010 469 191 167 288 274 423 468 26 37 47 71 47 74 0
4 6 14 14 22 57 67 212 428 240 563 3 13 12 51 20 85 16 66 20 87 32 168 3 28
9 59 11 70 9 37 11 430 3 480 -5 28 -16 95 -25 150 -49 303 -212 693 -379 906
-12 14 -28 36 -36 49 -29 43 -134 162 -205 233 -41 41 -180 160 -245 210 -149
115 -399 244 -607 312 -94 31 -127 41 -218 61 -43 10 -112 23 -152 29 -23 3
-57 8 -75 11 -39 7 -413 15 -419 10z"/>
</g>
</svg>
